<svg xmlns="http://www.w3.org/2000/svg" viewBox="0 0 24 24" fill="none">
  <path d="M22.2647 2.42778C21.98 2.19091 21.6364 2.03567 21.2716 1.97858C20.9068 1.92149 20.5341 1.96469 20.1907 2.10404L2.39066 9.51904C1.97301 9.68777 1.62126 9.98556 1.38542 10.3697C1.14959 10.7538 1.04093 11.205 1.07556 11.6558C1.11019 12.1067 1.28608 12.5327 1.57647 12.8722C1.86686 13.2117 2.25797 13.4459 2.69566 13.539L6.69066 14.289L8.28066 20.519C8.33205 20.7022 8.42018 20.8728 8.54066 21.022C8.61753 21.1247 8.70981 21.2152 8.81414 21.2902C8.91847 21.3652 9.03355 21.4237 9.15566 21.464C9.31372 21.5201 9.48068 21.5435 9.64726 21.5328C9.81384 21.5221 9.97674 21.4776 10.1266 21.402C10.2695 21.3198 10.3929 21.2092 10.4889 21.0771C10.5849 20.945 10.6513 20.794 10.6837 20.634L11.9077 15.926L16.8337 19.546C17.1479 19.7746 17.5337 19.8895 17.9247 19.8744C18.3156 19.8593 18.6911 19.7151 18.9867 19.466C19.2439 19.2392 19.4387 18.9511 19.5536 18.6273C19.6684 18.3035 19.6995 17.9546 19.6437 17.615L17.1907 3.86504C17.1469 3.49902 17.0109 3.15275 16.7962 2.86394C16.5815 2.57513 16.2961 2.35449 15.9697 2.22404C15.6432 2.09359 15.2877 2.05876 14.9405 2.12328C14.5934 2.1878 14.2684 2.34924 14.0007 2.59204L6.69066 14.289" stroke="currentColor" strokeWidth="2" strokeLinecap="round" strokeLinejoin="round"/>
</svg> 