<svg xmlns="http://www.w3.org/2000/svg" viewBox="0 0 24 24" fill="none">
  <path d="M3.29289 20.7071C2.90237 20.3166 2.90237 19.6834 3.29289 19.2929L5.29289 17.2929C5.68342 16.9024 6.31658 16.9024 6.70711 17.2929C7.09763 17.6834 7.09763 18.3166 6.70711 18.7071L4.70711 20.7071C4.31658 21.0976 3.68342 21.0976 3.29289 20.7071Z" fill="currentColor"/>
  <path d="M20.7071 3.29289C21.0976 3.68342 21.0976 4.31658 20.7071 4.70711L18.7071 6.70711C18.3166 7.09763 17.6834 7.09763 17.2929 6.70711C16.9024 6.31658 16.9024 5.68342 17.2929 5.29289L19.2929 3.29289C19.6834 2.90237 20.3166 2.90237 20.7071 3.29289Z" fill="currentColor"/>
  <path d="M12 2C6.47715 2 2 6.47715 2 12C2 13.8006 2.45827 15.5025 3.26552 17.0064L2.29289 19.7071C1.90237 20.0976 1.90237 20.7308 2.29289 21.1213C2.68342 21.5118 3.31658 21.5118 3.70711 21.1213L6.40777 19.7345C7.9117 20.5417 9.61364 21 11.4142 21H12C17.5228 21 22 16.5228 22 11C22 5.47715 17.5228 1 12 1V2Z" stroke="currentColor" strokeWidth="2" strokeLinecap="round" strokeLinejoin="round"/>
  <path d="M9 12C9 12.5523 8.55228 13 8 13C7.44772 13 7 12.5523 7 12C7 11.4477 7.44772 11 8 11C8.55228 11 9 11.4477 9 12Z" fill="currentColor"/>
  <path d="M13 12C13 12.5523 12.5523 13 12 13C11.4477 13 11 12.5523 11 12C11 11.4477 11.4477 11 12 11C12.5523 11 13 11.4477 13 12Z" fill="currentColor"/>
  <path d="M17 12C17 12.5523 16.5523 13 16 13C15.4477 13 15 12.5523 15 12C15 11.4477 15.4477 11 16 11C16.5523 11 17 11.4477 17 12Z" fill="currentColor"/>
</svg> 